<svg width="69" height="80" viewBox="0 0 69 80" fill="none" xmlns="http://www.w3.org/2000/svg">
<path d="M67.1406 7.95254C66.0448 6.66397 64.4469 5.92524 62.7564 5.92524H57.2081V4.18968C57.2081 2.04202 55.4606 0.294678 53.3131 0.294678H15.6873C13.5395 0.294678 11.7924 2.04202 11.7924 4.18952V5.92508H6.24346C4.55303 5.92508 2.95489 6.66397 1.85927 7.95238C0.77482 9.22745 0.306111 10.9022 0.573657 12.547C2.03159 21.5118 7.67332 29.4316 15.6803 33.7758C16.4119 35.5347 17.2404 37.2008 18.1631 38.753C21.1103 43.7123 24.7742 47.1397 28.8071 48.7972C29.2158 52.9297 26.466 56.8446 22.3249 57.7775C22.3161 57.7795 22.3099 57.7826 22.3012 57.7846C21.493 57.9777 20.8913 58.703 20.8913 59.5703V68.0019H17.4813C14.4411 68.0019 11.9677 70.4753 11.9677 73.5155V77.8673C11.9677 78.8824 12.7905 79.7052 13.8056 79.7052H55.3701C56.3853 79.7052 57.2081 78.8824 57.2081 77.8673V73.5155C57.2081 70.4753 54.7347 68.0019 51.6945 68.0019H48.2841V59.5704C48.2841 58.7014 47.6803 57.9751 46.8699 57.7837C46.8623 57.7818 46.8551 57.7793 46.8475 57.7775C42.675 56.8384 39.9201 52.8841 40.3718 48.7206C44.3342 47.0363 47.9339 43.6394 50.8377 38.7533C51.7604 37.201 52.5888 35.5347 53.3205 33.7754C61.327 29.4311 66.9685 21.5114 68.4264 12.547C68.6939 10.9022 68.2252 9.22761 67.1406 7.95254ZM4.20173 11.9569C4.10619 11.3695 4.26858 10.793 4.65912 10.3336C5.0554 9.8677 5.63268 9.60062 6.2433 9.60062H11.7923V12.9821C11.7923 18.2843 12.469 23.4203 13.7515 28.1171C8.71139 24.1343 5.24121 18.3487 4.20173 11.9569ZM51.6945 71.6779C52.7079 71.6779 53.5324 72.5024 53.5324 73.5158V76.0297H15.6434V73.5158C15.6434 72.5024 16.4679 71.6779 17.4813 71.6779H51.6945ZM44.6083 61.4084V68.0021H24.5675V61.4084H44.6083ZM29.3875 57.7327C29.8418 57.2326 30.2571 56.6905 30.6286 56.1103C31.8534 54.1966 32.4963 52.0224 32.5251 49.8018C33.178 49.8907 33.8368 49.9383 34.5013 49.9383C35.2242 49.9383 35.9404 49.8828 36.6497 49.7776C36.6916 52.7616 37.853 55.5861 39.8058 57.7325H29.3875V57.7327ZM53.5321 12.9822C53.5321 22.0368 51.4528 30.5222 47.6775 36.8751C44.0805 42.9286 39.4008 46.2625 34.501 46.2625C29.6003 46.2625 24.9203 42.9288 21.3228 36.8754C17.5474 30.5224 15.4681 22.0369 15.4681 12.9826V4.18952C15.4681 4.06855 15.5665 3.97037 15.6871 3.97037H53.3128C53.4337 3.97037 53.5321 4.0687 53.5321 4.18952V12.9822ZM64.7983 11.9569C63.7588 18.3482 60.289 24.1337 55.249 28.1168C56.5314 23.4199 57.2081 18.2843 57.2081 12.9822V9.60077H62.7564C63.3672 9.60077 63.9445 9.86801 64.3406 10.3338C64.7311 10.793 64.8937 11.3695 64.7983 11.9569Z" fill="black"/>
<path d="M27.4499 29.9246C29.857 27.9914 31.7429 26.4088 33.1075 25.1768C34.4721 23.9259 35.6188 22.6276 36.5475 21.2819C37.4952 19.9172 37.969 18.581 37.969 17.2733C37.969 16.0413 37.6658 15.0747 37.0593 14.3734C36.4717 13.6532 35.5146 13.2931 34.1878 13.2931C32.899 13.2931 31.8945 13.7006 31.1743 14.5155C30.473 15.3116 30.0939 16.3825 30.0371 17.7281H27.5352C27.611 15.6054 28.2554 13.9659 29.4685 12.8097C30.6815 11.6536 32.2451 11.0755 34.1594 11.0755C36.1116 11.0755 37.6563 11.6157 38.7935 12.696C39.9497 13.7764 40.5277 15.2642 40.5277 17.1595C40.5277 18.7327 40.0539 20.2679 39.1062 21.7652C38.1775 23.2436 37.1161 24.5513 35.9221 25.6885C34.728 26.8068 33.2023 28.1146 31.3448 29.6119H41.1248V31.7726H27.4499V29.9246Z" fill="black"/>
</svg>
