<svg width="69" height="80" viewBox="0 0 69 80" fill="none" xmlns="http://www.w3.org/2000/svg">
<path d="M67.1406 7.95254C66.0448 6.66397 64.4469 5.92524 62.7564 5.92524H57.2081V4.18968C57.2081 2.04202 55.4606 0.294678 53.3131 0.294678H15.6873C13.5395 0.294678 11.7924 2.04202 11.7924 4.18952V5.92508H6.24346C4.55303 5.92508 2.95489 6.66397 1.85927 7.95238C0.77482 9.22745 0.306111 10.9022 0.573657 12.547C2.03159 21.5118 7.67332 29.4316 15.6803 33.7758C16.4119 35.5347 17.2404 37.2008 18.1631 38.753C21.1103 43.7123 24.7742 47.1397 28.8071 48.7972C29.2158 52.9297 26.466 56.8446 22.3249 57.7775C22.3161 57.7795 22.3099 57.7826 22.3012 57.7846C21.493 57.9777 20.8913 58.703 20.8913 59.5703V68.0019H17.4813C14.4411 68.0019 11.9677 70.4753 11.9677 73.5155V77.8673C11.9677 78.8824 12.7905 79.7052 13.8056 79.7052H55.3701C56.3853 79.7052 57.2081 78.8824 57.2081 77.8673V73.5155C57.2081 70.4753 54.7347 68.0019 51.6945 68.0019H48.2841V59.5704C48.2841 58.7014 47.6803 57.9751 46.8699 57.7837C46.8623 57.7818 46.8551 57.7793 46.8475 57.7775C42.675 56.8384 39.9201 52.8841 40.3718 48.7206C44.3342 47.0363 47.9339 43.6394 50.8377 38.7533C51.7604 37.201 52.5888 35.5347 53.3205 33.7754C61.327 29.4311 66.9685 21.5114 68.4264 12.547C68.6939 10.9022 68.2252 9.22761 67.1406 7.95254ZM4.20173 11.9569C4.10619 11.3695 4.26858 10.793 4.65912 10.3336C5.0554 9.8677 5.63268 9.60062 6.2433 9.60062H11.7923V12.9821C11.7923 18.2843 12.469 23.4203 13.7515 28.1171C8.71139 24.1343 5.24121 18.3487 4.20173 11.9569ZM51.6945 71.6779C52.7079 71.6779 53.5324 72.5024 53.5324 73.5158V76.0297H15.6434V73.5158C15.6434 72.5024 16.4679 71.6779 17.4813 71.6779H51.6945ZM44.6083 61.4084V68.0021H24.5675V61.4084H44.6083ZM29.3875 57.7327C29.8418 57.2326 30.2571 56.6905 30.6286 56.1103C31.8534 54.1966 32.4963 52.0224 32.5251 49.8018C33.178 49.8907 33.8368 49.9383 34.5013 49.9383C35.2242 49.9383 35.9404 49.8828 36.6497 49.7776C36.6916 52.7616 37.853 55.5861 39.8058 57.7325H29.3875V57.7327ZM53.5321 12.9822C53.5321 22.0368 51.4528 30.5222 47.6775 36.8751C44.0805 42.9286 39.4008 46.2625 34.501 46.2625C29.6003 46.2625 24.9203 42.9288 21.3228 36.8754C17.5474 30.5224 15.4681 22.0369 15.4681 12.9826V4.18952C15.4681 4.06855 15.5665 3.97037 15.6871 3.97037H53.3128C53.4337 3.97037 53.5321 4.0687 53.5321 4.18952V12.9822ZM64.7983 11.9569C63.7588 18.3482 60.289 24.1337 55.249 28.1168C56.5314 23.4199 57.2081 18.2843 57.2081 12.9822V9.60077H62.7564C63.3672 9.60077 63.9445 9.86801 64.3406 10.3338C64.7311 10.793 64.8937 11.3695 64.7983 11.9569Z" fill="black"/>
<path d="M27.7058 16.6194C27.8385 14.8757 28.5113 13.511 29.7243 12.5254C30.9373 11.5399 32.5105 11.0471 34.4437 11.0471C35.7325 11.0471 36.8413 11.284 37.77 11.7578C38.7177 12.2127 39.4284 12.8382 39.9023 13.6342C40.3951 14.4303 40.6415 15.3305 40.6415 16.3351C40.6415 17.5102 40.3003 18.5242 39.618 19.3771C38.9546 20.23 38.0828 20.7796 37.0024 21.026V21.1682C38.2344 21.4714 39.2105 22.0685 39.9307 22.9593C40.6509 23.8501 41.011 25.0157 41.011 26.4561C41.011 27.5365 40.7646 28.5126 40.2719 29.3844C39.7791 30.2373 39.0399 30.9102 38.0543 31.403C37.0687 31.8958 35.8842 32.1422 34.5006 32.1422C32.4915 32.1422 30.8426 31.6209 29.5538 30.5785C28.2649 29.5171 27.5447 28.0198 27.3931 26.0866H29.8949C30.0276 27.2238 30.4919 28.1525 31.288 28.8727C32.084 29.5929 33.1454 29.953 34.4721 29.953C35.7989 29.953 36.8034 29.6119 37.4857 28.9296C38.187 28.2283 38.5376 27.328 38.5376 26.2287C38.5376 24.8072 38.0638 23.7837 37.1161 23.1583C36.1685 22.5328 34.7375 22.2201 32.8232 22.2201H32.1693V20.0594H32.8516C34.5953 20.0404 35.9126 19.7561 36.8034 19.2065C37.6942 18.6379 38.1396 17.766 38.1396 16.5909C38.1396 15.5864 37.8079 14.7809 37.1446 14.1744C36.5001 13.5679 35.5714 13.2646 34.3584 13.2646C33.1833 13.2646 32.2356 13.5679 31.5154 14.1744C30.7952 14.7809 30.3687 15.5959 30.2361 16.6194H27.7058Z" fill="black"/>
</svg>
